<svg xmlns="http://www.w3.org/2000/svg" xmlns:xlink="http://www.w3.org/1999/xlink" id="Layer_1" x="0px" y="0px" viewBox="0 0 48 38" style="enable-background:new 0 0 48 38;" xml:space="preserve">
<path d="M41,0.3c-9.4,6.6-14,14.5-14,23.7c0,4.2,1,7.5,3.1,10.1c2.1,2.6,4.7,3.9,7.9,3.9c2.8,0,5.2-0.9,7.1-2.8  c2-1.9,2.9-4.2,2.9-6.9c0-2.5-0.8-4.7-2.5-6.6c-1.7-1.9-3.7-3-6.2-3.3c-0.2-3.7,2-8.1,6.7-13c0.9-1.1,0.9-2.2,0-3.3l-1.3-1.5  C44.2,0.2,43.5,0,42.5,0C41.8,0,41.3,0.1,41,0.3z M14,0.3C4.7,6.9,0,14.8,0,24c0,4.2,1,7.5,3.1,10.1C5.2,36.7,7.8,38,11,38  c2.8,0,5.2-0.9,7.1-2.8c2-1.9,2.9-4.2,2.9-6.9c0-2.5-0.8-4.7-2.5-6.6c-1.7-1.9-3.7-3-6.2-3.3c-0.2-3.7,2-8.1,6.7-13  c1-1.1,0.9-2.2-0.2-3.3l-1.3-1.5c-0.4-0.4-1.1-0.7-2-0.7C14.9,0,14.4,0.1,14,0.3z"></path>
</svg>